# xmcd
#
# Track frame offsets: 
#        182
#        14732
#        27582
#        40382
#        53457
#        67445
#        77782
#        88557
#        101420
#        108747
#        118620
#        131945
#        144007
#        157645
#
# Disc length: 2247 seconds
#
# Revision: 3
# Processed by: cddbd v1.5.2PL0 Copyright (c) Steve Scherf et al.
# Submitted via: ExactAudioCopy v0.99pb3
#
DISCID=bd08c50e
DTITLE=John Mayall and the Bluesbreakers - A Hard Road
DYEAR=1967
DGENRE=
TTITLE0=A Hard Road
TTITLE1=It's Over
TTITLE2=You Don't Love Me
TTITLE3=The Stumble
TTITLE4=Another Kinda Love
TTITLE5=Hit The Highway
TTITLE6=Leaping Christine
TTITLE7=Dust My Blues
TTITLE8=There's Always Work
TTITLE9=The Same Way
TTITLE10=The Super-Natural
TTITLE11=Top of the Hill
TTITLE12=Someday After a While (You'll Be Sorry)
TTITLE13=Living Alone
EXTD=
EXTT0=
EXTT1=
EXTT2=
EXTT3=
EXTT4=
EXTT5=
EXTT6=
EXTT7=
EXTT8=
EXTT9=
EXTT10=
EXTT11=
EXTT12=
EXTT13=
PLAYORDER=
